<svg width="180" height="180" fill="none" xmlns="http://www.w3.org/2000/svg"><path fill-rule="evenodd" clip-rule="evenodd" d="M.332 25.084v25.083h50.167V0H.332v25.084zM57.666 10.75V21.5h7.166v-7.167H72v14.334H57.666v7.167h7.166V43h-7.166v7.167h7.166V43H72v7.167h7.167V43h7.167v7.167H93.5v7.167h-7.166V86H71.999V71.667h7.167V64.5h-7.167v-7.166H21.832V64.5H7.5v-7.167H.332v14.333h7.167v7.167H.332v43h7.167V107.5h7.166v14.333h7.167V107.5H29v7.167h7.167v7.166H50.5v-7.166h7.167v43H72V172H57.666v7.167h14.333V172h7.167v-7.166h7.167V150.5h7.166v-7.167h7.167v14.334h-7.167v7.167h7.167V172h7.167v-7.166h21.5v-7.167h7.167V150.5h14.333v-35.833H158V129h14.333v7.167h-7.166v7.166H179.5V129h-7.167v-14.333h7.167v-14.334h-7.167v-7.167h7.167v-21.5h-7.167V64.5h7.167v-7.166H158V64.5h-7.167v-7.167h-7.167V64.5H136.5v7.166h-7.167V57.334h-7.167v14.333H115V57.334h-14.334v-7.167h7.167V43h-7.167v-7.166h-7.167v-7.167h7.167V14.333h7.167V21.5H115v28.667h7.166V21.5H115v-7.167h7.166V7.167H115v7.166h-7.167V7.167h-7.167V0h-7.167v7.167h7.167v7.166h-7.167v14.334H79.166V21.5h7.167v-7.167h-7.167V7.167h7.167V0h-7.167v7.167H64.833V0h-7.167v10.75zm71.667 14.334v25.083H179.5V0h-50.167v25.084zm-86.359 0v17.558H7.857V7.525h35.117v17.559zm129.001 0v17.558h-35.117V7.525h35.117v17.559zm-157.31 0v10.75h21.5v-21.5h-21.5v10.75zm129.001 0v10.75h21.501v-21.5h-21.501v10.75zm-64.5 7.166v3.584h-7.167v-7.167h7.167v3.583zm14.333 7.167V43h7.167v7.167h-7.167V43h-7.166v-7.166h7.166v3.583zm7.167 21.5v3.584h-7.167v-7.167h7.167v3.583zm-71.667 10.75v7.167H14.665v-7.167h7.167V64.5H29v7.167zm28.667 0v7.167h-7.167V86h7.167v7.166h-7.167v7.167h-7.167v7.167H50.5v7.167h-7.167V107.5h-7.166v-7.167H7.499v-7.167h7.166V86H29v7.166h7.167V78.834H50.5v-7.167h-7.167V64.5h14.334v7.167zm71.667 3.584v3.583h7.167V86h7.166V71.667h7.167v14.334h21.5v7.166h-7.166v7.167h-14.334v-7.167h-7.167v14.334h7.167v7.167h-7.167v-7.167H136.5v7.167h-7.167v-7.167h7.167v-7.167h-7.167v-7.167H115v-7.166h7.166V71.667h7.167v3.584zm43 0v3.583H158v-7.167h14.333v3.584zm-71.667 7.166v3.584h7.167v21.5H115v-7.167h7.166v7.167H115v7.167H86.333v7.166H71.999V93.167h21.5V78.834h7.167v3.583zm-57.334 7.167v3.583h-7.166v7.167h7.166v-7.167H50.5v-7.166h-7.167v3.583zm86.001 0v3.583h7.167v-7.166h-7.167v3.583zm-64.5 17.917v7.167h-7.167v-14.334h7.166v7.167zm14.333 0v7.167h7.167v-7.167h14.333v-7.167h-21.5v7.167zm93.167 3.583v3.584h-7.166v-7.167h7.166v3.583zM115 129.001v7.167H93.499v7.166H79.166v7.167h-7.167v-7.167h7.167v-7.166H64.833v-7.167h14.333v7.167h7.167v-7.167h14.333v-7.167H115v7.167zm28.666 3.583v10.75h-21.5v-21.5h21.5v10.75zM.332 154.084v25.084h50.167v-50.167H.332v25.083zm129.001-21.5v3.584h7.167v-7.167h-7.167v3.583zm-86.359 21.5v17.559H7.857v-35.117h35.117v17.558zm-28.308 0v10.751h21.5v-21.501h-21.5v10.75zm114.667 0v3.584H115v-7.167h14.333v3.583zm35.834 0v3.584h-21.501v7.167H136.5v7.166h14.333v7.167H158v-7.167h14.333v7.167h7.167v-28.667h-14.333v3.583zM158 168.418v3.583h-7.167v-7.166H158v3.583zm-71.667 7.167v3.583h7.166v-7.167h-7.166v3.584zm28.667 0v3.583h14.333v-7.167H115v3.584z" fill="#202020"/></svg>