<svg width="118" height="31" fill="none" xmlns="http://www.w3.org/2000/svg"><path d="M53.276 11.204c-1.203 0-2.217-.408-3.042-1.224-.816-.816-1.224-1.863-1.224-3.142 0-1.28.408-2.323 1.224-3.13.825-.817 1.839-1.225 3.042-1.225 1.279 0 2.335.48 3.168 1.44l-.543.39a3.196 3.196 0 00-1.149-.858 3.472 3.472 0 00-1.476-.315c-1.001 0-1.839.345-2.512 1.035-.665.69-.997 1.577-.997 2.663 0 1.077.332 1.964.997 2.663.673.698 1.51 1.047 2.512 1.047.513 0 .984-.1 1.413-.303.43-.202.783-.441 1.06-.72V7.508h-3.18v-.644h3.9v2.94c-.833.934-1.897 1.401-3.193 1.401zm7.698-.012c-.892 0-1.624-.299-2.196-.896-.572-.598-.858-1.367-.858-2.31 0-.892.277-1.645.833-2.259a2.726 2.726 0 012.107-.934c.892 0 1.595.311 2.108.934.513.614.77 1.38.77 2.297v.177h-5.099c.034.69.265 1.266.694 1.729.43.463.993.694 1.691.694.808 0 1.473-.282 1.994-.846l.341.43c-.63.656-1.426.984-2.385.984zm2.095-3.509a2.55 2.55 0 00-.593-1.603c-.379-.48-.922-.719-1.628-.719-.665 0-1.195.24-1.59.72a2.64 2.64 0 00-.619 1.602h4.43zm3.691 3.509c-.8 0-1.2-.442-1.2-1.325V5.525h-1.01v-.58h1.01V3.278h.669v1.665h1.237v.581h-1.237v4.24c0 .556.21.834.631.834a.881.881 0 00.682-.29l.252.504c-.27.253-.614.379-1.035.379zm5.744-7.207a.484.484 0 01-.354-.151.485.485 0 01-.15-.354c0-.134.05-.248.15-.34a.484.484 0 01.354-.152c.143 0 .26.05.353.152a.444.444 0 01.152.34.498.498 0 01-.505.505zm.328 7.055h-.656V4.944h.656v6.096zm3.368.152c-.8 0-1.199-.442-1.199-1.325V5.525h-1.01v-.58h1.01V3.278h.67v1.665h1.236v.581H75.67v4.24c0 .556.21.834.631.834a.881.881 0 00.682-.29l.252.504c-.27.253-.614.379-1.035.379zm7.992 0c-.875 0-1.582-.307-2.12-.921-.54-.615-.809-1.376-.809-2.285 0-.909.27-1.666.808-2.272.539-.614 1.246-.921 2.12-.921.884 0 1.595.307 2.133.921.539.606.808 1.363.808 2.272 0 .909-.269 1.67-.808 2.285-.538.614-1.249.92-2.132.92zm0-.593c.69 0 1.232-.253 1.628-.758.404-.513.606-1.131.606-1.855 0-.715-.203-1.325-.606-1.83-.396-.513-.938-.77-1.628-.77-.682 0-1.225.257-1.629.77-.395.505-.593 1.115-.593 1.83 0 .715.198 1.33.593 1.843.404.513.947.77 1.629.77zm9.406.441h-.656V6.913c0-.555-.127-.946-.38-1.173-.251-.236-.617-.354-1.097-.354a2.32 2.32 0 00-1.123.303 2.42 2.42 0 00-.859.745v4.606h-.656V4.944h.656v.922c.244-.286.568-.534.972-.745a2.546 2.546 0 011.224-.328c1.28 0 1.919.66 1.919 1.982v4.265zm-40.41 14.727c-1.263 0-2.327-.404-3.194-1.211-.858-.808-1.287-1.86-1.287-3.156 0-1.304.43-2.356 1.287-3.155.867-.8 1.931-1.199 3.194-1.199 1.53 0 2.692.627 3.483 1.88l-1.49.808a2.33 2.33 0 00-.832-.782 2.186 2.186 0 00-1.161-.316c-.766 0-1.397.261-1.894.783-.496.521-.744 1.182-.744 1.981 0 .8.248 1.46.744 1.982.497.521 1.128.782 1.894.782.353 0 .694-.063 1.022-.189.328-.126.585-.278.77-.454v-1.01h-2.222v-1.565h4.014v3.23c-.95 1.061-2.146 1.591-3.584 1.591zm10.143-.934c-.589.615-1.371.922-2.347.922s-1.759-.307-2.348-.922c-.58-.622-.87-1.384-.87-2.284 0-.9.29-1.658.87-2.272.59-.614 1.372-.921 2.348-.921.976 0 1.758.307 2.347.921.59.614.884 1.371.884 2.272 0 .9-.295 1.662-.884 2.284zm-3.483-1.01c.278.337.656.505 1.136.505.48 0 .858-.168 1.136-.504.286-.345.429-.77.429-1.275 0-.497-.143-.913-.43-1.25-.277-.345-.656-.517-1.135-.517-.48 0-.858.172-1.136.517-.278.337-.417.753-.417 1.25 0 .505.14.93.417 1.275zm10.731 1.01c-.59.615-1.372.922-2.348.922-.976 0-1.758-.307-2.347-.922-.581-.622-.871-1.384-.871-2.284 0-.9.29-1.658.87-2.272.59-.614 1.372-.921 2.348-.921.976 0 1.759.307 2.348.921.589.614.883 1.371.883 2.272 0 .9-.294 1.662-.883 2.284zm-3.484-1.01c.278.337.656.505 1.136.505.48 0 .858-.168 1.136-.504.286-.345.429-.77.429-1.275 0-.497-.143-.913-.43-1.25-.277-.345-.655-.517-1.135-.517s-.858.172-1.136.517c-.278.337-.416.753-.416 1.25 0 .505.138.93.416 1.275zm8.055 4.254c-1.052 0-1.927-.303-2.625-.909l.72-1.161c.454.505 1.089.757 1.905.757.454 0 .846-.122 1.174-.366.336-.235.505-.627.505-1.174v-.618c-.505.64-1.132.96-1.88.96-.792 0-1.44-.27-1.945-.808-.496-.547-.744-1.313-.744-2.297 0-.976.248-1.738.744-2.285.505-.547 1.153-.82 1.944-.82.757 0 1.384.311 1.88.934v-.783h1.616v5.68c0 .555-.1 1.03-.303 1.426a2.074 2.074 0 01-.795.896 3.623 3.623 0 01-1.047.429 4.52 4.52 0 01-1.149.139zm.303-3.938c.26 0 .522-.067.782-.202.261-.135.459-.299.594-.492v-1.969a1.45 1.45 0 00-.593-.492 1.643 1.643 0 00-.783-.202c-.463 0-.837.151-1.123.454-.278.303-.417.711-.417 1.224 0 .514.14.922.417 1.225.286.303.66.454 1.123.454zm6.184 1.464h-1.603v-8.418h1.603v8.418zm4.454.152c-.942 0-1.72-.295-2.335-.884-.614-.589-.921-1.363-.921-2.322 0-.9.294-1.658.883-2.272.598-.614 1.355-.921 2.272-.921.909 0 1.645.311 2.209.934.564.614.845 1.422.845 2.423v.353h-4.53c.05.404.23.74.542 1.01.312.27.715.404 1.212.404.269 0 .56-.055.87-.164.32-.11.573-.257.758-.442l.707 1.035c-.614.564-1.452.846-2.512.846zm1.401-3.774a1.527 1.527 0 00-.416-.934c-.244-.278-.606-.417-1.086-.417-.454 0-.808.14-1.06.417-.253.27-.4.58-.442.934h3.004zm7.769 3.622H93.47v-8.418h3.938c.883 0 1.573.26 2.07.782.505.514.757 1.157.757 1.931 0 .766-.252 1.41-.757 1.931-.505.522-1.195.783-2.07.783h-2.146v2.991zm1.906-4.569c.362 0 .656-.1.884-.303.235-.21.353-.488.353-.833s-.118-.618-.353-.82c-.228-.21-.522-.316-.884-.316h-1.906v2.272h1.906zm5.743 4.569h-1.603v-8.418h1.603v8.418zm6.852 0h-1.603v-.63c-.437.52-1.081.782-1.931.782a2.288 2.288 0 01-1.476-.53c-.429-.362-.644-.859-.644-1.49 0-.656.211-1.148.631-1.476a2.384 2.384 0 011.489-.493c.867 0 1.511.249 1.931.745v-.82a.887.887 0 00-.366-.745c-.244-.185-.567-.278-.971-.278-.665 0-1.258.24-1.78.72l-.606-1.073c.724-.64 1.612-.96 2.663-.96.783 0 1.422.182 1.919.543.496.362.744.951.744 1.767v3.938zm-2.89-.934c.598 0 1.027-.177 1.287-.53v-.757c-.26-.354-.689-.53-1.287-.53-.328 0-.601.084-.82.252a.78.78 0 00-.328.67c0 .277.109.495.328.655.219.16.492.24.82.24zm4.266 3.319l.239-1.438c.152.067.32.1.505.1.429 0 .711-.147.846-.441l.227-.517-2.474-6.185h1.717l1.59 4.24 1.59-4.24h1.729l-2.865 7.093c-.21.539-.504.913-.883 1.123-.379.22-.854.337-1.426.354-.295 0-.56-.03-.795-.089z" fill="#202020"/><path d="M.71 3.58L.708 15.359C.709 19.46.7 23.56.718 27.66c.002.56.06 1.135.2 1.675.312 1.204 1.326 1.746 2.513 1.353.491-.162.956-.42 1.41-.675a6401.341 6401.341 0 0016.287-9.174 333.914 333.914 0 005.65-3.286c2.212-1.309 2.188-3.03-.045-4.354a20.8 20.8 0 00-.339-.198L5.16.939C1.98-.866.71-.112.71 3.581z" fill="#ECECEC"/><path d="M1.725 1.767v26.928l13.5-13.403-13.5-13.525zM2.944.727l-.05.18 13.328 13.298c1.194-1.18 2.49-2.458 3.84-3.79L2.944.727zm17.118 19.636l-3.784-3.785L2.917 29.904l.046.15c5.715-3.24 11.431-6.479 17.1-9.691zM16.91 15.13l4.499 4.466c1.65-.941 3.45-1.923 5.202-2.982 1.178-.712 1.242-1.652.136-2.344-1.662-1.039-3.385-1.983-5.107-2.92-.219-.118-.696-.064-.878.103-1.345 1.232-2.645 2.514-3.852 3.677z" fill="#202020"/></svg>